solid 
facet normal 0.0 0.0 1.0
outer loop
vertex -1.5 -1.5 0.05
vertex -0.5 -1.5 0.05
vertex -0.5 -0.5 0.05
endloop
endfacet
facet normal 0.0 -0.0 1.0
outer loop
vertex -1.5 -1.5 0.05
vertex -0.5 -0.5 0.05
vertex -1.5 -0.5 0.05
endloop
endfacet
facet normal 0.0 0.0 -1.0
outer loop
vertex -1.5 -0.5 -0.05
vertex -0.5 -0.5 -0.05
vertex -0.5 -1.5 -0.05
endloop
endfacet
facet normal -0.0 -0.0 -1.0
outer loop
vertex -1.5 -0.5 -0.05
vertex -0.5 -1.5 -0.05
vertex -1.5 -1.5 -0.05
endloop
endfacet
facet normal 1.0 0.0 0.0
outer loop
vertex -1.5 -1.5 -0.05
vertex -1.5 -0.5 -0.05
vertex -1.5 -0.5 0.05
endloop
endfacet
facet normal 1.0 0.0 -0.0
outer loop
vertex -1.5 -1.5 -0.05
vertex -1.5 -0.5 0.05
vertex -1.5 -1.5 0.05
endloop
endfacet
facet normal 0.0 1.0 -0.0
outer loop
vertex -0.5 -1.5 -0.05
vertex -1.5 -1.5 -0.05
vertex -1.5 -1.5 0.05
endloop
endfacet
facet normal 0.0 1.0 -0.0
outer loop
vertex -0.5 -1.5 -0.05
vertex -1.5 -1.5 0.05
vertex -0.5 -1.5 0.05
endloop
endfacet
facet normal 0.0 0.0 1.0
outer loop
vertex -1.5 -0.5 0.05
vertex -0.5 -0.5 0.05
vertex -0.5 0.5 0.05
endloop
endfacet
facet normal 0.0 -0.0 1.0
outer loop
vertex -1.5 -0.5 0.05
vertex -0.5 0.5 0.05
vertex -1.5 0.5 0.05
endloop
endfacet
facet normal 0.0 0.0 -1.0
outer loop
vertex -1.5 0.5 -0.05
vertex -0.5 0.5 -0.05
vertex -0.5 -0.5 -0.05
endloop
endfacet
facet normal -0.0 -0.0 -1.0
outer loop
vertex -1.5 0.5 -0.05
vertex -0.5 -0.5 -0.05
vertex -1.5 -0.5 -0.05
endloop
endfacet
facet normal 1.0 0.0 0.0
outer loop
vertex -1.5 -0.5 -0.05
vertex -1.5 0.5 -0.05
vertex -1.5 0.5 0.05
endloop
endfacet
facet normal 1.0 0.0 -0.0
outer loop
vertex -1.5 -0.5 -0.05
vertex -1.5 0.5 0.05
vertex -1.5 -0.5 0.05
endloop
endfacet
facet normal -1.0 0.0 0.0
outer loop
vertex -0.5 0.5 -0.05
vertex -0.5 -0.5 -0.05
vertex -0.5 -0.5 0.05
endloop
endfacet
facet normal -1.0 0.0 0.0
outer loop
vertex -0.5 0.5 -0.05
vertex -0.5 -0.5 0.05
vertex -0.5 0.5 0.05
endloop
endfacet
facet normal 0.0 0.0 1.0
outer loop
vertex -1.5 0.5 0.05
vertex -0.5 0.5 0.05
vertex -0.5 1.5 0.05
endloop
endfacet
facet normal 0.0 -0.0 1.0
outer loop
vertex -1.5 0.5 0.05
vertex -0.5 1.5 0.05
vertex -1.5 1.5 0.05
endloop
endfacet
facet normal 0.0 0.0 -1.0
outer loop
vertex -1.5 1.5 -0.05
vertex -0.5 1.5 -0.05
vertex -0.5 0.5 -0.05
endloop
endfacet
facet normal -0.0 -0.0 -1.0
outer loop
vertex -1.5 1.5 -0.05
vertex -0.5 0.5 -0.05
vertex -1.5 0.5 -0.05
endloop
endfacet
facet normal 1.0 0.0 0.0
outer loop
vertex -1.5 0.5 -0.05
vertex -1.5 1.5 -0.05
vertex -1.5 1.5 0.05
endloop
endfacet
facet normal 1.0 0.0 -0.0
outer loop
vertex -1.5 0.5 -0.05
vertex -1.5 1.5 0.05
vertex -1.5 0.5 0.05
endloop
endfacet
facet normal 0.0 -1.0 0.0
outer loop
vertex -1.5 1.5 -0.05
vertex -0.5 1.5 -0.05
vertex -0.5 1.5 0.05
endloop
endfacet
facet normal 0.0 -1.0 0.0
outer loop
vertex -1.5 1.5 -0.05
vertex -0.5 1.5 0.05
vertex -1.5 1.5 0.05
endloop
endfacet
facet normal 0.0 0.0 1.0
outer loop
vertex -0.5 -1.5 0.05
vertex 0.5 -1.5 0.05
vertex 0.5 -0.5 0.05
endloop
endfacet
facet normal 0.0 -0.0 1.0
outer loop
vertex -0.5 -1.5 0.05
vertex 0.5 -0.5 0.05
vertex -0.5 -0.5 0.05
endloop
endfacet
facet normal 0.0 0.0 -1.0
outer loop
vertex -0.5 -0.5 -0.05
vertex 0.5 -0.5 -0.05
vertex 0.5 -1.5 -0.05
endloop
endfacet
facet normal -0.0 -0.0 -1.0
outer loop
vertex -0.5 -0.5 -0.05
vertex 0.5 -1.5 -0.05
vertex -0.5 -1.5 -0.05
endloop
endfacet
facet normal 0.0 1.0 -0.0
outer loop
vertex 0.5 -1.5 -0.05
vertex -0.5 -1.5 -0.05
vertex -0.5 -1.5 0.05
endloop
endfacet
facet normal 0.0 1.0 -0.0
outer loop
vertex 0.5 -1.5 -0.05
vertex -0.5 -1.5 0.05
vertex 0.5 -1.5 0.05
endloop
endfacet
facet normal 0.0 -1.0 0.0
outer loop
vertex -0.5 -0.5 -0.05
vertex 0.5 -0.5 -0.05
vertex 0.5 -0.5 0.05
endloop
endfacet
facet normal 0.0 -1.0 0.0
outer loop
vertex -0.5 -0.5 -0.05
vertex 0.5 -0.5 0.05
vertex -0.5 -0.5 0.05
endloop
endfacet
facet normal 0.0 0.0 1.0
outer loop
vertex -0.5 0.5 0.05
vertex 0.5 0.5 0.05
vertex 0.5 1.5 0.05
endloop
endfacet
facet normal 0.0 -0.0 1.0
outer loop
vertex -0.5 0.5 0.05
vertex 0.5 1.5 0.05
vertex -0.5 1.5 0.05
endloop
endfacet
facet normal 0.0 0.0 -1.0
outer loop
vertex -0.5 1.5 -0.05
vertex 0.5 1.5 -0.05
vertex 0.5 0.5 -0.05
endloop
endfacet
facet normal -0.0 -0.0 -1.0
outer loop
vertex -0.5 1.5 -0.05
vertex 0.5 0.5 -0.05
vertex -0.5 0.5 -0.05
endloop
endfacet
facet normal 0.0 1.0 -0.0
outer loop
vertex 0.5 0.5 -0.05
vertex -0.5 0.5 -0.05
vertex -0.5 0.5 0.05
endloop
endfacet
facet normal 0.0 1.0 -0.0
outer loop
vertex 0.5 0.5 -0.05
vertex -0.5 0.5 0.05
vertex 0.5 0.5 0.05
endloop
endfacet
facet normal 0.0 -1.0 0.0
outer loop
vertex -0.5 1.5 -0.05
vertex 0.5 1.5 -0.05
vertex 0.5 1.5 0.05
endloop
endfacet
facet normal 0.0 -1.0 0.0
outer loop
vertex -0.5 1.5 -0.05
vertex 0.5 1.5 0.05
vertex -0.5 1.5 0.05
endloop
endfacet
facet normal 0.0 0.0 1.0
outer loop
vertex 0.5 -1.5 0.05
vertex 1.5 -1.5 0.05
vertex 1.5 -0.5 0.05
endloop
endfacet
facet normal 0.0 -0.0 1.0
outer loop
vertex 0.5 -1.5 0.05
vertex 1.5 -0.5 0.05
vertex 0.5 -0.5 0.05
endloop
endfacet
facet normal 0.0 0.0 -1.0
outer loop
vertex 0.5 -0.5 -0.05
vertex 1.5 -0.5 -0.05
vertex 1.5 -1.5 -0.05
endloop
endfacet
facet normal -0.0 -0.0 -1.0
outer loop
vertex 0.5 -0.5 -0.05
vertex 1.5 -1.5 -0.05
vertex 0.5 -1.5 -0.05
endloop
endfacet
facet normal -1.0 0.0 0.0
outer loop
vertex 1.5 -0.5 -0.05
vertex 1.5 -1.5 -0.05
vertex 1.5 -1.5 0.05
endloop
endfacet
facet normal -1.0 0.0 0.0
outer loop
vertex 1.5 -0.5 -0.05
vertex 1.5 -1.5 0.05
vertex 1.5 -0.5 0.05
endloop
endfacet
facet normal 0.0 1.0 -0.0
outer loop
vertex 1.5 -1.5 -0.05
vertex 0.5 -1.5 -0.05
vertex 0.5 -1.5 0.05
endloop
endfacet
facet normal 0.0 1.0 -0.0
outer loop
vertex 1.5 -1.5 -0.05
vertex 0.5 -1.5 0.05
vertex 1.5 -1.5 0.05
endloop
endfacet
facet normal 0.0 0.0 1.0
outer loop
vertex 0.5 -0.5 0.05
vertex 1.5 -0.5 0.05
vertex 1.5 0.5 0.05
endloop
endfacet
facet normal 0.0 -0.0 1.0
outer loop
vertex 0.5 -0.5 0.05
vertex 1.5 0.5 0.05
vertex 0.5 0.5 0.05
endloop
endfacet
facet normal 0.0 0.0 -1.0
outer loop
vertex 0.5 0.5 -0.05
vertex 1.5 0.5 -0.05
vertex 1.5 -0.5 -0.05
endloop
endfacet
facet normal -0.0 -0.0 -1.0
outer loop
vertex 0.5 0.5 -0.05
vertex 1.5 -0.5 -0.05
vertex 0.5 -0.5 -0.05
endloop
endfacet
facet normal 1.0 0.0 0.0
outer loop
vertex 0.5 -0.5 -0.05
vertex 0.5 0.5 -0.05
vertex 0.5 0.5 0.05
endloop
endfacet
facet normal 1.0 0.0 -0.0
outer loop
vertex 0.5 -0.5 -0.05
vertex 0.5 0.5 0.05
vertex 0.5 -0.5 0.05
endloop
endfacet
facet normal -1.0 0.0 0.0
outer loop
vertex 1.5 0.5 -0.05
vertex 1.5 -0.5 -0.05
vertex 1.5 -0.5 0.05
endloop
endfacet
facet normal -1.0 0.0 0.0
outer loop
vertex 1.5 0.5 -0.05
vertex 1.5 -0.5 0.05
vertex 1.5 0.5 0.05
endloop
endfacet
facet normal 0.0 0.0 1.0
outer loop
vertex 0.5 0.5 0.05
vertex 1.5 0.5 0.05
vertex 1.5 1.5 0.05
endloop
endfacet
facet normal 0.0 -0.0 1.0
outer loop
vertex 0.5 0.5 0.05
vertex 1.5 1.5 0.05
vertex 0.5 1.5 0.05
endloop
endfacet
facet normal 0.0 0.0 -1.0
outer loop
vertex 0.5 1.5 -0.05
vertex 1.5 1.5 -0.05
vertex 1.5 0.5 -0.05
endloop
endfacet
facet normal -0.0 -0.0 -1.0
outer loop
vertex 0.5 1.5 -0.05
vertex 1.5 0.5 -0.05
vertex 0.5 0.5 -0.05
endloop
endfacet
facet normal -1.0 0.0 0.0
outer loop
vertex 1.5 1.5 -0.05
vertex 1.5 0.5 -0.05
vertex 1.5 0.5 0.05
endloop
endfacet
facet normal -1.0 0.0 0.0
outer loop
vertex 1.5 1.5 -0.05
vertex 1.5 0.5 0.05
vertex 1.5 1.5 0.05
endloop
endfacet
facet normal 0.0 -1.0 0.0
outer loop
vertex 0.5 1.5 -0.05
vertex 1.5 1.5 -0.05
vertex 1.5 1.5 0.05
endloop
endfacet
facet normal 0.0 -1.0 0.0
outer loop
vertex 0.5 1.5 -0.05
vertex 1.5 1.5 0.05
vertex 0.5 1.5 0.05
endloop
endfacet

endsolid
